<svg width="63" height="66" viewBox="0 0 63 66" fill="none" xmlns="http://www.w3.org/2000/svg">
<path d="M16 23C20.8438 17.7176 33.825 10.3223 47 23" stroke="#5F7BE8" stroke-width="3" stroke-linecap="round"/>
<path d="M15.7 48.25C23.4 48.25 29.05 42.65 29.05 34.85C29.05 27.05 23.4 21.5 15.7 21.5C8 21.5 2.3 27.05 2.3 34.85C2.3 42.65 8 48.25 15.7 48.25ZM15.7 45.1C10.1 45.1 5.9 41 5.9 34.85C5.9 28.7 10.1 24.6 15.7 24.6C21.3 24.6 25.45 28.7 25.45 34.85C25.45 41 21.3 45.1 15.7 45.1ZM47.0477 48.25C54.7477 48.25 60.3977 42.65 60.3977 34.85C60.3977 27.05 54.7477 21.5 47.0477 21.5C39.3477 21.5 33.6477 27.05 33.6477 34.85C33.6477 42.65 39.3477 48.25 47.0477 48.25ZM47.0477 45.1C41.4477 45.1 37.2477 41 37.2477 34.85C37.2477 28.7 41.4477 24.6 47.0477 24.6C52.6477 24.6 56.7977 28.7 56.7977 34.85C56.7977 41 52.6477 45.1 47.0477 45.1Z" fill="#5F7BE8"/>
<path d="M9.888 53.456V54.592C9.184 53.744 8.128 53.36 6.928 53.36C4.48 53.36 2.608 54.992 2.608 57.472C2.608 59.952 4.48 61.616 6.928 61.616C8.08 61.616 9.088 61.248 9.792 60.48V60.928C9.792 62.656 8.96 63.52 7.072 63.52C5.888 63.52 4.672 63.12 3.92 62.496L3.024 64C4 64.8 5.584 65.216 7.184 65.216C10.176 65.216 11.792 63.808 11.792 60.704V53.456H9.888ZM7.232 59.92C5.712 59.92 4.624 58.928 4.624 57.472C4.624 56.032 5.712 55.056 7.232 55.056C8.736 55.056 9.824 56.032 9.824 57.472C9.824 58.928 8.736 59.92 7.232 59.92ZM18.2614 62.112C20.9174 62.112 22.8214 60.288 22.8214 57.728C22.8214 55.168 20.9174 53.36 18.2614 53.36C15.6374 53.36 13.7174 55.168 13.7174 57.728C13.7174 60.288 15.6374 62.112 18.2614 62.112ZM18.2614 60.4C16.8214 60.4 15.7334 59.36 15.7334 57.728C15.7334 56.096 16.8214 55.056 18.2614 55.056C19.7174 55.056 20.8054 56.096 20.8054 57.728C20.8054 59.36 19.7174 60.4 18.2614 60.4ZM28.5739 62.112C31.2299 62.112 33.1339 60.288 33.1339 57.728C33.1339 55.168 31.2299 53.36 28.5739 53.36C25.9499 53.36 24.0299 55.168 24.0299 57.728C24.0299 60.288 25.9499 62.112 28.5739 62.112ZM28.5739 60.4C27.1339 60.4 26.0459 59.36 26.0459 57.728C26.0459 56.096 27.1339 55.056 28.5739 55.056C30.0299 55.056 31.1179 56.096 31.1179 57.728C31.1179 59.36 30.0299 60.4 28.5739 60.4ZM45.8304 53.36C44.4704 53.36 43.3184 53.904 42.6304 54.784C42.0384 53.824 40.9984 53.36 39.7504 53.36C38.5824 53.36 37.5904 53.776 36.9504 54.544V53.456H35.0464V62H37.0464V57.664C37.0464 55.968 37.9424 55.104 39.2704 55.104C40.4864 55.104 41.1904 55.84 41.1904 57.36V62H43.1904V57.664C43.1904 55.968 44.1024 55.104 45.4144 55.104C46.6304 55.104 47.3344 55.84 47.3344 57.36V62H49.3344V57.104C49.3344 54.528 47.8944 53.36 45.8304 53.36ZM55.8083 62.112C58.4643 62.112 60.3683 60.288 60.3683 57.728C60.3683 55.168 58.4643 53.36 55.8083 53.36C53.1843 53.36 51.2643 55.168 51.2643 57.728C51.2643 60.288 53.1843 62.112 55.8083 62.112ZM55.8083 60.4C54.3683 60.4 53.2803 59.36 53.2803 57.728C53.2803 56.096 54.3683 55.056 55.8083 55.056C57.2643 55.056 58.3523 56.096 58.3523 57.728C58.3523 59.36 57.2643 60.4 55.8083 60.4Z" fill="#5F7BE8"/>
</svg>
