<svg width="182" height="61" viewBox="0 0 182 61" fill="none" xmlns="http://www.w3.org/2000/svg">
<path d="M25.9 21.7V26.75C23.7 23.3 19.9 21.5 15.5 21.5C8 21.5 2.3 26.65 2.3 34.2C2.3 41.75 8 47 15.5 47C19.8 47 23.55 45.25 25.75 41.9V45.25C25.75 51.75 22.7 54.8 16.05 54.8C12 54.8 8.2 53.45 5.7 51.2L3.9 53.9C6.65 56.5 11.35 57.95 16.15 57.95C24.85 57.95 29.3 53.85 29.3 44.8V21.7H25.9ZM15.85 43.85C10.05 43.85 5.9 39.9 5.9 34.2C5.9 28.5 10.05 24.6 15.85 24.6C21.65 24.6 25.85 28.5 25.85 34.2C25.85 39.9 21.65 43.85 15.85 43.85ZM49.9773 48.25C57.6773 48.25 63.3273 42.65 63.3273 34.85C63.3273 27.05 57.6773 21.5 49.9773 21.5C42.2773 21.5 36.5773 27.05 36.5773 34.85C36.5773 42.65 42.2773 48.25 49.9773 48.25ZM49.9773 45.1C44.3773 45.1 40.1773 41 40.1773 34.85C40.1773 28.7 44.3773 24.6 49.9773 24.6C55.5773 24.6 59.7273 28.7 59.7273 34.85C59.7273 41 55.5773 45.1 49.9773 45.1ZM81.325 48.25C89.025 48.25 94.675 42.65 94.675 34.85C94.675 27.05 89.025 21.5 81.325 21.5C73.625 21.5 67.925 27.05 67.925 34.85C67.925 42.65 73.625 48.25 81.325 48.25ZM81.325 45.1C75.725 45.1 71.525 41 71.525 34.85C71.525 28.7 75.725 24.6 81.325 24.6C86.925 24.6 91.075 28.7 91.075 34.85C91.075 41 86.925 45.1 81.325 45.1ZM134.723 21.5C129.973 21.5 126.223 23.65 124.323 27.05C122.723 23.35 119.323 21.5 114.973 21.5C110.573 21.5 107.173 23.35 105.323 26.5V21.7H101.923V48H105.473V34.2C105.473 28.2 108.923 24.7 114.273 24.7C119.073 24.7 121.873 27.55 121.873 33.1V48H125.423V34.2C125.423 28.2 128.823 24.7 134.223 24.7C138.973 24.7 141.773 27.55 141.773 33.1V48H145.323V32.75C145.323 25.2 141.123 21.5 134.723 21.5ZM165.798 48.25C173.498 48.25 179.148 42.65 179.148 34.85C179.148 27.05 173.498 21.5 165.798 21.5C158.098 21.5 152.398 27.05 152.398 34.85C152.398 42.65 158.098 48.25 165.798 48.25ZM165.798 45.1C160.198 45.1 155.998 41 155.998 34.85C155.998 28.7 160.198 24.6 165.798 24.6C171.398 24.6 175.548 28.7 175.548 34.85C175.548 41 171.398 45.1 165.798 45.1Z" fill="#5F7BE8"/>
<path d="M50 23C54.8438 17.7176 67.825 10.3223 81 23" stroke="#5F7BE8" stroke-width="3" stroke-linecap="round"/>
</svg>
